ffmpeg version N-79120-ga14d4c0 Copyright (c) 2000-2016 the FFmpeg developers
  built with gcc 4.8 (Ubuntu 4.8.2-19ubuntu1)
  configuration: --prefix=/root/ffmpeg_build --pkg-config-flags=--static --extra-cflags=-I/root/ffmpeg_build/include --extra-ldflags=-L/root/ffmpeg_build/lib --bindir=/root/bin --enable-gpl --enable-libass --enable-libfdk-aac --enable-libmp3lame --enable-libx264 --enable-nonfree
  libavutil      55. 19.100 / 55. 19.100
  libavcodec     57. 30.100 / 57. 30.100
  libavformat    57. 29.100 / 57. 29.100
  libavdevice    57.  0.101 / 57.  0.101
  libavfilter     6. 39.102 /  6. 39.102
  libswscale      4.  0.100 /  4.  0.100
  libswresample   2.  0.101 /  2.  0.101
  libpostproc    54.  0.100 / 54.  0.100
[mpeg2video @ 0xa3cc960] Invalid frame dimensions 0x0.
    Last message repeated 21 times
[mpegts @ 0xa3ae660] Could not find codec parameters for stream 2 (Audio: mp3 ([3][0][0][0] / 0x0003), 0 channels, s16p): unspecified frame size
Consider increasing the value for the 'analyzeduration' and 'probesize' options
[mpegts @ 0xa3ae660] Could not find codec parameters for stream 5 (Unknown: none ([5][0][0][0] / 0x0005)): unknown codec
Consider increasing the value for the 'analyzeduration' and 'probesize' options
[mpegts @ 0xa3ae660] Could not find codec parameters for stream 6 (Unknown: none ([11][0][0][0] / 0x000B)): unknown codec
Consider increasing the value for the 'analyzeduration' and 'probesize' options
[mpegts @ 0xa3ae660] Could not find codec parameters for stream 7 (Unknown: none ([11][0][0][0] / 0x000B)): unknown codec
Consider increasing the value for the 'analyzeduration' and 'probesize' options
[mpegts @ 0xa3ae660] Could not find codec parameters for stream 8 (Unknown: none ([11][0][0][0] / 0x000B)): unknown codec
Consider increasing the value for the 'analyzeduration' and 'probesize' options
[mpegts @ 0xa3ae660] Could not find codec parameters for stream 9 (Unknown: none ([11][0][0][0] / 0x000B)): unknown codec
Consider increasing the value for the 'analyzeduration' and 'probesize' options
[mpegts @ 0xa3ae660] Could not find codec parameters for stream 10 (Unknown: none ([11][0][0][0] / 0x000B)): unknown codec
Consider increasing the value for the 'analyzeduration' and 'probesize' options
[mpegts @ 0xa3ae660] Could not find codec parameters for stream 11 (Unknown: none ([11][0][0][0] / 0x000B)): unknown codec
Consider increasing the value for the 'analyzeduration' and 'probesize' options
[mpegts @ 0xa3ae660] Could not find codec parameters for stream 12 (Unknown: none ([5][0][0][0] / 0x0005)): unknown codec
Consider increasing the value for the 'analyzeduration' and 'probesize' options
Input #0, mpegts, from 'udp://@239.100.0.0:1234?overrun_nonfatal=1&fifo_size=50000000-flush_packets':
  Duration: N/A, start: 24986.011422, bitrate: N/A
  Program 4173 
    Metadata:
      service_name    : BBC ONE East W
      service_provider: 
    Stream #0:0[0x65]: Video: mpeg2video (Main) ([2][0][0][0] / 0x0002), yuv420p(tv), 704x576 [SAR 16:11 DAR 16:9], max. 15000 kb/s, 25 fps, 25 tbr, 90k tbn, 50 tbc
    Stream #0:1[0x66](eng): Audio: mp2 ([3][0][0][0] / 0x0003), 48000 Hz, stereo, s16p, 256 kb/s
    Stream #0:2[0x6a](eng): Audio: mp3 ([3][0][0][0] / 0x0003), 0 channels, s16p (visual impaired)
    Stream #0:3[0x69](eng): Subtitle: dvb_subtitle ([6][0][0][0] / 0x0006)
    Stream #0:4[0x98]: Data: bin_data ([6][0][0][0] / 0x0006)
    Stream #0:5[0x96]: Unknown: none ([5][0][0][0] / 0x0005)
    Stream #0:6[0x77]: Unknown: none ([11][0][0][0] / 0x000B)
    Stream #0:7[0x1c21]: Unknown: none ([11][0][0][0] / 0x000B)
    Stream #0:8[0x1c22]: Unknown: none ([11][0][0][0] / 0x000B)
    Stream #0:9[0x1c23]: Unknown: none ([11][0][0][0] / 0x000B)
    Stream #0:10[0x1c24]: Unknown: none ([11][0][0][0] / 0x000B)
    Stream #0:11[0x1ce9]: Unknown: none ([11][0][0][0] / 0x000B)
    Stream #0:12[0x1c66]: Unknown: none ([5][0][0][0] / 0x0005)
[NULL @ 0xa6a2140] Unable to find a suitable output format for '0'
0: Invalid argument
ffmpeg version N-79120-ga14d4c0 Copyright (c) 2000-2016 the FFmpeg developers
  built with gcc 4.8 (Ubuntu 4.8.2-19ubuntu1)
  configuration: --prefix=/root/ffmpeg_build --pkg-config-flags=--static --extra-cflags=-I/root/ffmpeg_build/include --extra-ldflags=-L/root/ffmpeg_build/lib --bindir=/root/bin --enable-gpl --enable-libass --enable-libfdk-aac --enable-libmp3lame --enable-libx264 --enable-nonfree
  libavutil      55. 19.100 / 55. 19.100
  libavcodec     57. 30.100 / 57. 30.100
  libavformat    57. 29.100 / 57. 29.100
  libavdevice    57.  0.101 / 57.  0.101
  libavfilter     6. 39.102 /  6. 39.102
  libswscale      4.  0.100 /  4.  0.100
  libswresample   2.  0.101 /  2.  0.101
  libpostproc    54.  0.100 / 54.  0.100
[mpeg2video @ 0xb5b4a80] Invalid frame dimensions 0x0.
    Last message repeated 19 times
Input #0, mpegts, from 'udp://@239.100.1.0:1234?overrun_nonfatal=1&fifo_size=50000000-flush_packets':
  Duration: N/A, start: 1081.193067, bitrate: N/A
  Program 8330 
    Metadata:
      service_name    : ITV4
      service_provider: 
    Stream #0:0[0x7d1]: Video: mpeg2video (Main) ([2][0][0][0] / 0x0002), yuv420p(tv), 720x576 [SAR 64:45 DAR 16:9], max. 3322 kb/s, 25 fps, 25 tbr, 90k tbn, 50 tbc
    Stream #0:1[0x7d2](eng): Audio: mp2 ([4][0][0][0] / 0x0004), 48000 Hz, stereo, s16p, 192 kb/s
    Stream #0:2[0x7d3](eng): Audio: mp2 ([4][0][0][0] / 0x0004), 48000 Hz, mono, s16p, 64 kb/s (visual impaired)
    Stream #0:3[0x7ef](eng): Subtitle: dvb_subtitle ([6][0][0][0] / 0x0006)
[NULL @ 0xb5d6120] Unable to find a suitable output format for '0'
0: Invalid argument
ffmpeg version N-79120-ga14d4c0 Copyright (c) 2000-2016 the FFmpeg developers
  built with gcc 4.8 (Ubuntu 4.8.2-19ubuntu1)
  configuration: --prefix=/root/ffmpeg_build --pkg-config-flags=--static --extra-cflags=-I/root/ffmpeg_build/include --extra-ldflags=-L/root/ffmpeg_build/lib --bindir=/root/bin --enable-gpl --enable-libass --enable-libfdk-aac --enable-libmp3lame --enable-libx264 --enable-nonfree
  libavutil      55. 19.100 / 55. 19.100
  libavcodec     57. 30.100 / 57. 30.100
  libavformat    57. 29.100 / 57. 29.100
  libavdevice    57.  0.101 / 57.  0.101
  libavfilter     6. 39.102 /  6. 39.102
  libswscale      4.  0.100 /  4.  0.100
  libswresample   2.  0.101 /  2.  0.101
  libpostproc    54.  0.100 / 54.  0.100
[mpeg2video @ 0xb0c8960] Invalid frame dimensions 0x0.
    Last message repeated 4 times
[mpegts @ 0xb0aa660] Could not find codec parameters for stream 4 (Unknown: none ([5][0][0][0] / 0x0005)): unknown codec
Consider increasing the value for the 'analyzeduration' and 'probesize' options
Input #0, mpegts, from 'udp://@239.100.1.1:1234?overrun_nonfatal=1&fifo_size=50000000-flush_packets':
  Duration: N/A, start: 47110.766822, bitrate: N/A
  Program 8384 
    Metadata:
      service_name    : Channel 4
      service_provider: 
    Stream #0:0[0x44d]: Video: mpeg2video (Main) ([2][0][0][0] / 0x0002), yuv420p(tv), 720x576 [SAR 64:45 DAR 16:9], max. 2766 kb/s, 25 fps, 25 tbr, 90k tbn, 50 tbc
    Stream #0:1[0x44e](eng): Audio: mp2 ([4][0][0][0] / 0x0004), 48000 Hz, stereo, s16p, 192 kb/s
    Stream #0:2[0x44f](eng): Audio: mp2 ([4][0][0][0] / 0x0004), 48000 Hz, mono, s16p, 64 kb/s (visual impaired)
    Stream #0:3[0x46b](eng): Subtitle: dvb_subtitle ([6][0][0][0] / 0x0006)
    Stream #0:4[0xbb9]: Unknown: none ([5][0][0][0] / 0x0005)
[NULL @ 0xb1b7b20] Unable to find a suitable output format for '0'
0: Invalid argument
ffmpeg version N-79120-ga14d4c0 Copyright (c) 2000-2016 the FFmpeg developers
  built with gcc 4.8 (Ubuntu 4.8.2-19ubuntu1)
  configuration: --prefix=/root/ffmpeg_build --pkg-config-flags=--static --extra-cflags=-I/root/ffmpeg_build/include --extra-ldflags=-L/root/ffmpeg_build/lib --bindir=/root/bin --enable-gpl --enable-libass --enable-libfdk-aac --enable-libmp3lame --enable-libx264 --enable-nonfree
  libavutil      55. 19.100 / 55. 19.100
  libavcodec     57. 30.100 / 57. 30.100
  libavformat    57. 29.100 / 57. 29.100
  libavdevice    57.  0.101 / 57.  0.101
  libavfilter     6. 39.102 /  6. 39.102
  libswscale      4.  0.100 /  4.  0.100
  libswresample   2.  0.101 /  2.  0.101
  libpostproc    54.  0.100 / 54.  0.100
[mpeg2video @ 0x9e809e0] Invalid frame dimensions 0x0.
    Last message repeated 7 times
[mpegts @ 0x9e62660] Could not find codec parameters for stream 2 (Audio: mp3 ([3][0][0][0] / 0x0003), 0 channels, s16p): unspecified frame size
Consider increasing the value for the 'analyzeduration' and 'probesize' options
[mpegts @ 0x9e62660] Could not find codec parameters for stream 5 (Unknown: none ([5][0][0][0] / 0x0005)): unknown codec
Consider increasing the value for the 'analyzeduration' and 'probesize' options
[mpegts @ 0x9e62660] Could not find codec parameters for stream 6 (Unknown: none ([11][0][0][0] / 0x000B)): unknown codec
Consider increasing the value for the 'analyzeduration' and 'probesize' options
[mpegts @ 0x9e62660] Could not find codec parameters for stream 7 (Unknown: none ([11][0][0][0] / 0x000B)): unknown codec
Consider increasing the value for the 'analyzeduration' and 'probesize' options
[mpegts @ 0x9e62660] Could not find codec parameters for stream 8 (Unknown: none ([11][0][0][0] / 0x000B)): unknown codec
Consider increasing the value for the 'analyzeduration' and 'probesize' options
[mpegts @ 0x9e62660] Could not find codec parameters for stream 9 (Unknown: none ([11][0][0][0] / 0x000B)): unknown codec
Consider increasing the value for the 'analyzeduration' and 'probesize' options
[mpegts @ 0x9e62660] Could not find codec parameters for stream 10 (Unknown: none ([11][0][0][0] / 0x000B)): unknown codec
Consider increasing the value for the 'analyzeduration' and 'probesize' options
[mpegts @ 0x9e62660] Could not find codec parameters for stream 11 (Unknown: none ([11][0][0][0] / 0x000B)): unknown codec
Consider increasing the value for the 'analyzeduration' and 'probesize' options
[mpegts @ 0x9e62660] Could not find codec parameters for stream 12 (Unknown: none ([5][0][0][0] / 0x0005)): unknown codec
Consider increasing the value for the 'analyzeduration' and 'probesize' options
Input #0, mpegts, from 'udp://@239.100.0.0:1234?overrun_nonfatal=1&fifo_size=50000000-flush_packets':
  Duration: N/A, start: 25046.731433, bitrate: N/A
  Program 4173 
    Metadata:
      service_name    : BBC ONE East W
      service_provider: 
    Stream #0:0[0x65]: Video: mpeg2video (Main) ([2][0][0][0] / 0x0002), yuv420p(tv), 704x576 [SAR 16:11 DAR 16:9], max. 15000 kb/s, 25 fps, 25 tbr, 90k tbn, 50 tbc
    Stream #0:1[0x66](eng): Audio: mp2 ([3][0][0][0] / 0x0003), 48000 Hz, stereo, s16p, 256 kb/s
    Stream #0:2[0x6a](eng): Audio: mp3 ([3][0][0][0] / 0x0003), 0 channels, s16p (visual impaired)
    Stream #0:3[0x69](eng): Subtitle: dvb_subtitle ([6][0][0][0] / 0x0006)
    Stream #0:4[0x98]: Data: bin_data ([6][0][0][0] / 0x0006)
    Stream #0:5[0x96]: Unknown: none ([5][0][0][0] / 0x0005)
    Stream #0:6[0x77]: Unknown: none ([11][0][0][0] / 0x000B)
    Stream #0:7[0x1c21]: Unknown: none ([11][0][0][0] / 0x000B)
    Stream #0:8[0x1c22]: Unknown: none ([11][0][0][0] / 0x000B)
    Stream #0:9[0x1c23]: Unknown: none ([11][0][0][0] / 0x000B)
    Stream #0:10[0x1c24]: Unknown: none ([11][0][0][0] / 0x000B)
    Stream #0:11[0x1ce9]: Unknown: none ([11][0][0][0] / 0x000B)
    Stream #0:12[0x1c66]: Unknown: none ([5][0][0][0] / 0x0005)
[NULL @ 0xa32c400] Unable to find a suitable output format for '0'
0: Invalid argument
ffmpeg version N-79120-ga14d4c0 Copyright (c) 2000-2016 the FFmpeg developers
  built with gcc 4.8 (Ubuntu 4.8.2-19ubuntu1)
  configuration: --prefix=/root/ffmpeg_build --pkg-config-flags=--static --extra-cflags=-I/root/ffmpeg_build/include --extra-ldflags=-L/root/ffmpeg_build/lib --bindir=/root/bin --enable-gpl --enable-libass --enable-libfdk-aac --enable-libmp3lame --enable-libx264 --enable-nonfree
  libavutil      55. 19.100 / 55. 19.100
  libavcodec     57. 30.100 / 57. 30.100
  libavformat    57. 29.100 / 57. 29.100
  libavdevice    57.  0.101 / 57.  0.101
  libavfilter     6. 39.102 /  6. 39.102
  libswscale      4.  0.100 /  4.  0.100
  libswresample   2.  0.101 /  2.  0.101
  libpostproc    54.  0.100 / 54.  0.100
[mpeg2video @ 0xab9ea80] Invalid frame dimensions 0x0.
    Last message repeated 8 times
[mpegts @ 0xab80660] Could not find codec parameters for stream 2 (Audio: mp3 ([3][0][0][0] / 0x0003), 0 channels, s16p): unspecified frame size
Consider increasing the value for the 'analyzeduration' and 'probesize' options
[mpegts @ 0xab80660] Could not find codec parameters for stream 4 (Unknown: none ([5][0][0][0] / 0x0005)): unknown codec
Consider increasing the value for the 'analyzeduration' and 'probesize' options
[mpegts @ 0xab80660] Could not find codec parameters for stream 5 (Unknown: none ([11][0][0][0] / 0x000B)): unknown codec
Consider increasing the value for the 'analyzeduration' and 'probesize' options
[mpegts @ 0xab80660] Could not find codec parameters for stream 6 (Unknown: none ([11][0][0][0] / 0x000B)): unknown codec
Consider increasing the value for the 'analyzeduration' and 'probesize' options
[mpegts @ 0xab80660] Could not find codec parameters for stream 7 (Unknown: none ([11][0][0][0] / 0x000B)): unknown codec
Consider increasing the value for the 'analyzeduration' and 'probesize' options
[mpegts @ 0xab80660] Could not find codec parameters for stream 8 (Unknown: none ([11][0][0][0] / 0x000B)): unknown codec
Consider increasing the value for the 'analyzeduration' and 'probesize' options
[mpegts @ 0xab80660] Could not find codec parameters for stream 9 (Unknown: none ([11][0][0][0] / 0x000B)): unknown codec
Consider increasing the value for the 'analyzeduration' and 'probesize' options
[mpegts @ 0xab80660] Could not find codec parameters for stream 10 (Unknown: none ([11][0][0][0] / 0x000B)): unknown codec
Consider increasing the value for the 'analyzeduration' and 'probesize' options
[mpegts @ 0xab80660] Could not find codec parameters for stream 11 (Unknown: none ([5][0][0][0] / 0x0005)): unknown codec
Consider increasing the value for the 'analyzeduration' and 'probesize' options
Input #0, mpegts, from 'udp://@239.100.0.1:1234?overrun_nonfatal=1&fifo_size=50000000-flush_packets':
  Duration: N/A, start: 25306.517444, bitrate: N/A
  Program 4287 
    Metadata:
      service_name    : BBC TWO
      service_provider: 
    Stream #0:0[0xc9]: Video: mpeg2video (Main) ([2][0][0][0] / 0x0002), yuv420p(tv), 704x576 [SAR 16:11 DAR 16:9], max. 15000 kb/s, 25 fps, 25 tbr, 90k tbn, 50 tbc
    Stream #0:1[0xca](eng): Audio: mp2 ([3][0][0][0] / 0x0003), 48000 Hz, stereo, s16p, 256 kb/s
    Stream #0:2[0xce](eng): Audio: mp3 ([3][0][0][0] / 0x0003), 0 channels, s16p (visual impaired)
    Stream #0:3[0xcd](eng): Subtitle: dvb_subtitle ([6][0][0][0] / 0x0006)
    Stream #0:4[0xfa]: Unknown: none ([5][0][0][0] / 0x0005)
    Stream #0:5[0xdb]: Unknown: none ([11][0][0][0] / 0x000B)
    Stream #0:6[0x1c21]: Unknown: none ([11][0][0][0] / 0x000B)
    Stream #0:7[0x1c22]: Unknown: none ([11][0][0][0] / 0x000B)
    Stream #0:8[0x1c23]: Unknown: none ([11][0][0][0] / 0x000B)
    Stream #0:9[0x1c24]: Unknown: none ([11][0][0][0] / 0x000B)
    Stream #0:10[0x1ce9]: Unknown: none ([11][0][0][0] / 0x000B)
    Stream #0:11[0x1c66]: Unknown: none ([5][0][0][0] / 0x0005)
[NULL @ 0xabe3be0] Unable to find a suitable output format for '0'
0: Invalid argument
ffmpeg version N-79120-ga14d4c0 Copyright (c) 2000-2016 the FFmpeg developers
  built with gcc 4.8 (Ubuntu 4.8.2-19ubuntu1)
  configuration: --prefix=/root/ffmpeg_build --pkg-config-flags=--static --extra-cflags=-I/root/ffmpeg_build/include --extra-ldflags=-L/root/ffmpeg_build/lib --bindir=/root/bin --enable-gpl --enable-libass --enable-libfdk-aac --enable-libmp3lame --enable-libx264 --enable-nonfree
  libavutil      55. 19.100 / 55. 19.100
  libavcodec     57. 30.100 / 57. 30.100
  libavformat    57. 29.100 / 57. 29.100
  libavdevice    57.  0.101 / 57.  0.101
  libavfilter     6. 39.102 /  6. 39.102
  libswscale      4.  0.100 /  4.  0.100
  libswresample   2.  0.101 /  2.  0.101
  libpostproc    54.  0.100 / 54.  0.100
[mpeg2video @ 0xa502960] Invalid frame dimensions 0x0.
    Last message repeated 15 times
[mpegts @ 0xa4e4660] Could not find codec parameters for stream 3 (Unknown: none ([11][0][0][0] / 0x000B)): unknown codec
Consider increasing the value for the 'analyzeduration' and 'probesize' options
[mpegts @ 0xa4e4660] Could not find codec parameters for stream 4 (Unknown: none ([11][0][0][0] / 0x000B)): unknown codec
Consider increasing the value for the 'analyzeduration' and 'probesize' options
[mpegts @ 0xa4e4660] Could not find codec parameters for stream 5 (Unknown: none ([11][0][0][0] / 0x000B)): unknown codec
Consider increasing the value for the 'analyzeduration' and 'probesize' options
[mpegts @ 0xa4e4660] Could not find codec parameters for stream 6 (Unknown: none ([11][0][0][0] / 0x000B)): unknown codec
Consider increasing the value for the 'analyzeduration' and 'probesize' options
[mpegts @ 0xa4e4660] Could not find codec parameters for stream 7 (Unknown: none ([11][0][0][0] / 0x000B)): unknown codec
Consider increasing the value for the 'analyzeduration' and 'probesize' options
[mpegts @ 0xa4e4660] Could not find codec parameters for stream 8 (Unknown: none ([5][0][0][0] / 0x0005)): unknown codec
Consider increasing the value for the 'analyzeduration' and 'probesize' options
Input #0, mpegts, from 'udp://@239.100.0.2:1234?overrun_nonfatal=1&fifo_size=50000000-flush_packets':
  Duration: N/A, start: 25313.735756, bitrate: N/A
  Program 4352 
    Metadata:
      service_name    : BBC NEWS
      service_provider: 
    Stream #0:0[0x1f5]: Video: mpeg2video (Main) ([2][0][0][0] / 0x0002), yuv420p(tv), 704x576 [SAR 16:11 DAR 16:9], max. 15000 kb/s, 25 fps, 25 tbr, 90k tbn, 50 tbc
    Stream #0:1[0x1f6](eng): Audio: mp2 ([3][0][0][0] / 0x0003), 48000 Hz, stereo, s16p, 128 kb/s
    Stream #0:2[0x1f9](eng): Subtitle: dvb_subtitle ([6][0][0][0] / 0x0006)
    Stream #0:3[0x1c21]: Unknown: none ([11][0][0][0] / 0x000B)
    Stream #0:4[0x1c22]: Unknown: none ([11][0][0][0] / 0x000B)
    Stream #0:5[0x1c23]: Unknown: none ([11][0][0][0] / 0x000B)
    Stream #0:6[0x1c24]: Unknown: none ([11][0][0][0] / 0x000B)
    Stream #0:7[0x1ce9]: Unknown: none ([11][0][0][0] / 0x000B)
    Stream #0:8[0x1c66]: Unknown: none ([5][0][0][0] / 0x0005)
[NULL @ 0xa93db80] Unable to find a suitable output format for '0'
0: Invalid argument
ffmpeg version N-79120-ga14d4c0 Copyright (c) 2000-2016 the FFmpeg developers
  built with gcc 4.8 (Ubuntu 4.8.2-19ubuntu1)
  configuration: --prefix=/root/ffmpeg_build --pkg-config-flags=--static --extra-cflags=-I/root/ffmpeg_build/include --extra-ldflags=-L/root/ffmpeg_build/lib --bindir=/root/bin --enable-gpl --enable-libass --enable-libfdk-aac --enable-libmp3lame --enable-libx264 --enable-nonfree
  libavutil      55. 19.100 / 55. 19.100
  libavcodec     57. 30.100 / 57. 30.100
  libavformat    57. 29.100 / 57. 29.100
  libavdevice    57.  0.101 / 57.  0.101
  libavfilter     6. 39.102 /  6. 39.102
  libswscale      4.  0.100 /  4.  0.100
  libswresample   2.  0.101 /  2.  0.101
  libpostproc    54.  0.100 / 54.  0.100
[mpeg2video @ 0xad5c960] Invalid frame dimensions 0x0.
    Last message repeated 22 times
[mpegts @ 0xad3e660] Could not find codec parameters for stream 3 (Unknown: none ([11][0][0][0] / 0x000B)): unknown codec
Consider increasing the value for the 'analyzeduration' and 'probesize' options
[mpegts @ 0xad3e660] Could not find codec parameters for stream 4 (Unknown: none ([11][0][0][0] / 0x000B)): unknown codec
Consider increasing the value for the 'analyzeduration' and 'probesize' options
[mpegts @ 0xad3e660] Could not find codec parameters for stream 5 (Unknown: none ([11][0][0][0] / 0x000B)): unknown codec
Consider increasing the value for the 'analyzeduration' and 'probesize' options
[mpegts @ 0xad3e660] Could not find codec parameters for stream 6 (Unknown: none ([11][0][0][0] / 0x000B)): unknown codec
Consider increasing the value for the 'analyzeduration' and 'probesize' options
[mpegts @ 0xad3e660] Could not find codec parameters for stream 7 (Unknown: none ([11][0][0][0] / 0x000B)): unknown codec
Consider increasing the value for the 'analyzeduration' and 'probesize' options
[mpegts @ 0xad3e660] Could not find codec parameters for stream 8 (Unknown: none ([5][0][0][0] / 0x0005)): unknown codec
Consider increasing the value for the 'analyzeduration' and 'probesize' options
Input #0, mpegts, from 'udp://@239.100.0.3:1234?overrun_nonfatal=1&fifo_size=50000000-flush_packets':
  Duration: N/A, start: 25321.087367, bitrate: N/A
  Program 4736 
    Metadata:
      service_name    : BBC Parliament
      service_provider: 
    Stream #0:0[0x259]: Video: mpeg2video (Main) ([2][0][0][0] / 0x0002), yuv420p(tv), 544x576 [SAR 32:17 DAR 16:9], max. 15000 kb/s, 25 fps, 25 tbr, 90k tbn, 50 tbc
    Stream #0:1[0x25a](eng): Audio: mp2 ([3][0][0][0] / 0x0003), 48000 Hz, stereo, s16p, 128 kb/s
    Stream #0:2[0x25d](eng): Subtitle: dvb_subtitle ([6][0][0][0] / 0x0006)
    Stream #0:3[0x1c21]: Unknown: none ([11][0][0][0] / 0x000B)
    Stream #0:4[0x1c22]: Unknown: none ([11][0][0][0] / 0x000B)
    Stream #0:5[0x1c23]: Unknown: none ([11][0][0][0] / 0x000B)
    Stream #0:6[0x1c24]: Unknown: none ([11][0][0][0] / 0x000B)
    Stream #0:7[0x1ce9]: Unknown: none ([11][0][0][0] / 0x000B)
    Stream #0:8[0x1c66]: Unknown: none ([5][0][0][0] / 0x0005)
[NULL @ 0xad7d8c0] Unable to find a suitable output format for '0'
0: Invalid argument
Exiting normally, received signal 2.
ffmpeg version N-79120-ga14d4c0 Copyright (c) 2000-2016 the FFmpeg developers
  built with gcc 4.8 (Ubuntu 4.8.2-19ubuntu1)
  configuration: --prefix=/root/ffmpeg_build --pkg-config-flags=--static --extra-cflags=-I/root/ffmpeg_build/include --extra-ldflags=-L/root/ffmpeg_build/lib --bindir=/root/bin --enable-gpl --enable-libass --enable-libfdk-aac --enable-libmp3lame --enable-libx264 --enable-nonfree
  libavutil      55. 19.100 / 55. 19.100
  libavcodec     57. 30.100 / 57. 30.100
  libavformat    57. 29.100 / 57. 29.100
  libavdevice    57.  0.101 / 57.  0.101
  libavfilter     6. 39.102 /  6. 39.102
  libswscale      4.  0.100 /  4.  0.100
  libswresample   2.  0.101 /  2.  0.101
  libpostproc    54.  0.100 / 54.  0.100
[mpeg2video @ 0xa570960] Invalid frame dimensions 0x0.
    Last message repeated 10 times
Input #0, mpegts, from 'udp://@239.100.1.0:1234?overrun_nonfatal=1&fifo_size=50000000-flush_packets':
  Duration: N/A, start: 1136.633067, bitrate: N/A
  Program 8330 
    Metadata:
      service_name    : ITV4
      service_provider: 
    Stream #0:0[0x7d1]: Video: mpeg2video (Main) ([2][0][0][0] / 0x0002), yuv420p(tv), 720x576 [SAR 64:45 DAR 16:9], max. 992 kb/s, 25 fps, 25 tbr, 90k tbn, 50 tbc
    Stream #0:1[0x7d2](eng): Audio: mp2 ([4][0][0][0] / 0x0004), 48000 Hz, stereo, s16p, 192 kb/s
    Stream #0:2[0x7d3](eng): Audio: mp2 ([4][0][0][0] / 0x0004), 48000 Hz, mono, s16p, 64 kb/s (visual impaired)
    Stream #0:3[0x7ef](eng): Subtitle: dvb_subtitle ([6][0][0][0] / 0x0006)
[NULL @ 0xa5951c0] Unable to find a suitable output format for '0'
0: Invalid argument
ffmpeg version N-79120-ga14d4c0 Copyright (c) 2000-2016 the FFmpeg developers
  built with gcc 4.8 (Ubuntu 4.8.2-19ubuntu1)
  configuration: --prefix=/root/ffmpeg_build --pkg-config-flags=--static --extra-cflags=-I/root/ffmpeg_build/include --extra-ldflags=-L/root/ffmpeg_build/lib --bindir=/root/bin --enable-gpl --enable-libass --enable-libfdk-aac --enable-libmp3lame --enable-libx264 --enable-nonfree
  libavutil      55. 19.100 / 55. 19.100
  libavcodec     57. 30.100 / 57. 30.100
  libavformat    57. 29.100 / 57. 29.100
  libavdevice    57.  0.101 / 57.  0.101
  libavfilter     6. 39.102 /  6. 39.102
  libswscale      4.  0.100 /  4.  0.100
  libswresample   2.  0.101 /  2.  0.101
  libpostproc    54.  0.100 / 54.  0.100
[mpeg2video @ 0xae26960] Invalid frame dimensions 0x0.
    Last message repeated 21 times
[mpegts @ 0xae08660] Could not find codec parameters for stream 2 (Audio: mp3 ([3][0][0][0] / 0x0003), 0 channels, s16p): unspecified frame size
Consider increasing the value for the 'analyzeduration' and 'probesize' options
[mpegts @ 0xae08660] Could not find codec parameters for stream 5 (Unknown: none ([5][0][0][0] / 0x0005)): unknown codec
Consider increasing the value for the 'analyzeduration' and 'probesize' options
[mpegts @ 0xae08660] Could not find codec parameters for stream 6 (Unknown: none ([11][0][0][0] / 0x000B)): unknown codec
Consider increasing the value for the 'analyzeduration' and 'probesize' options
[mpegts @ 0xae08660] Could not find codec parameters for stream 7 (Unknown: none ([11][0][0][0] / 0x000B)): unknown codec
Consider increasing the value for the 'analyzeduration' and 'probesize' options
[mpegts @ 0xae08660] Could not find codec parameters for stream 8 (Unknown: none ([11][0][0][0] / 0x000B)): unknown codec
Consider increasing the value for the 'analyzeduration' and 'probesize' options
[mpegts @ 0xae08660] Could not find codec parameters for stream 9 (Unknown: none ([11][0][0][0] / 0x000B)): unknown codec
Consider increasing the value for the 'analyzeduration' and 'probesize' options
[mpegts @ 0xae08660] Could not find codec parameters for stream 10 (Unknown: none ([11][0][0][0] / 0x000B)): unknown codec
Consider increasing the value for the 'analyzeduration' and 'probesize' options
[mpegts @ 0xae08660] Could not find codec parameters for stream 11 (Unknown: none ([11][0][0][0] / 0x000B)): unknown codec
Consider increasing the value for the 'analyzeduration' and 'probesize' options
[mpegts @ 0xae08660] Could not find codec parameters for stream 12 (Unknown: none ([5][0][0][0] / 0x0005)): unknown codec
Consider increasing the value for the 'analyzeduration' and 'probesize' options
Input #0, mpegts, from 'udp://@239.100.0.0:1234?overrun_nonfatal=1&fifo_size=50000000-flush_packets':
  Duration: N/A, start: 25120.891422, bitrate: N/A
  Program 4173 
    Metadata:
      service_name    : BBC ONE East W
      service_provider: 
    Stream #0:0[0x65]: Video: mpeg2video (Main) ([2][0][0][0] / 0x0002), yuv420p(tv), 704x576 [SAR 16:11 DAR 16:9], max. 15000 kb/s, 25 fps, 25 tbr, 90k tbn, 50 tbc
    Stream #0:1[0x66](eng): Audio: mp2 ([3][0][0][0] / 0x0003), 48000 Hz, stereo, s16p, 256 kb/s
    Stream #0:2[0x6a](eng): Audio: mp3 ([3][0][0][0] / 0x0003), 0 channels, s16p (visual impaired)
    Stream #0:3[0x69](eng): Subtitle: dvb_subtitle ([6][0][0][0] / 0x0006)
    Stream #0:4[0x98]: Data: bin_data ([6][0][0][0] / 0x0006)
    Stream #0:5[0x96]: Unknown: none ([5][0][0][0] / 0x0005)
    Stream #0:6[0x77]: Unknown: none ([11][0][0][0] / 0x000B)
    Stream #0:7[0x1c21]: Unknown: none ([11][0][0][0] / 0x000B)
    Stream #0:8[0x1c22]: Unknown: none ([11][0][0][0] / 0x000B)
    Stream #0:9[0x1c23]: Unknown: none ([11][0][0][0] / 0x000B)
    Stream #0:10[0x1c24]: Unknown: none ([11][0][0][0] / 0x000B)
    Stream #0:11[0x1ce9]: Unknown: none ([11][0][0][0] / 0x000B)
    Stream #0:12[0x1c66]: Unknown: none ([5][0][0][0] / 0x0005)
[NULL @ 0xae8f620] Unable to find a suitable output format for '0'
0: Invalid argument
